<svg width="176" height="28" viewBox="0 0 176 28" fill="none" xmlns="http://www.w3.org/2000/svg">
<path d="M66.6813 21.4176H63.3072L70.9164 6.49952H74.9914L77.6546 21.4176H74.2805L72.4583 9.90365H72.3381L66.6813 21.4176ZM67.4522 15.5505H75.4319L75.0114 18.0135H67.0217L67.4522 15.5505ZM79.7171 21.4176V6.49952H82.8609V18.8144H89.2586V21.4176H79.7171ZM90.6904 21.4176V6.49952H93.8342V18.8144H100.232V21.4176H90.6904ZM103.206 6.49952H107.1L109.543 16.5217H109.723L115.49 6.49952H119.365L116.902 21.4176H113.838L115.45 11.7058H115.32L109.874 21.3475H107.781L105.548 11.6858H105.418L103.786 21.4176H100.733L103.206 6.49952ZM126.484 21.6178C125.162 21.6178 123.974 21.3175 122.919 20.7168C121.865 20.116 121.03 19.245 120.416 18.1036C119.802 16.9622 119.495 15.5839 119.495 13.9686C119.495 12.3399 119.802 10.9549 120.416 9.81354C121.03 8.66548 121.865 7.79442 122.919 7.20037C123.974 6.59964 125.162 6.29928 126.484 6.29928C127.805 6.29928 128.993 6.59964 130.048 7.20037C131.103 7.79442 131.934 8.66548 132.541 9.81354C133.155 10.9549 133.462 12.3399 133.462 13.9686C133.462 15.5905 133.155 16.9722 132.541 18.1136C131.934 19.255 131.103 20.126 130.048 20.7268C128.993 21.3208 127.805 21.6178 126.484 21.6178ZM126.484 18.8345C127.251 18.8345 127.919 18.6476 128.486 18.2738C129.054 17.9 129.491 17.3527 129.798 16.6318C130.111 15.9043 130.268 15.0165 130.268 13.9686C130.268 12.914 130.111 12.0229 129.798 11.2953C129.491 10.5678 129.054 10.0171 128.486 9.64333C127.919 9.26955 127.251 9.08265 126.484 9.08265C125.723 9.08265 125.059 9.26955 124.491 9.64333C123.924 10.0171 123.48 10.5678 123.16 11.2953C122.846 12.0229 122.689 12.914 122.689 13.9686C122.689 15.0165 122.846 15.9043 123.16 16.6318C123.48 17.3527 123.924 17.9 124.491 18.2738C125.059 18.6476 125.723 18.8345 126.484 18.8345ZM147.599 6.49952V21.4176H144.876L138.398 12.0362H138.268V21.4176H135.124V6.49952H137.888L144.325 15.8809H144.456V6.49952H147.599ZM149.522 21.4176V6.49952H159.574V9.10268H152.665V12.6069H159.053V15.16H152.665V18.8144H159.594V21.4176H149.522ZM160.535 6.49952H164.069L167.473 12.9273H167.614L171.018 6.49952H174.552L169.115 16.1512V21.4176H165.982V16.1512L160.535 6.49952Z" fill="#000734"/>
<path d="M13.7147 1.92278C15.6874 -0.416258 19.4373 -0.634101 21.745 1.33977C22.2813 1.79852 22.5145 2.19648 22.9013 2.72844L24.1669 4.50481C25.0479 5.74154 25.9356 6.93819 26.8153 8.18841L27.1522 8.64251C27.2684 8.80188 27.3806 8.96282 27.4657 9.10442C27.8148 8.5457 28.2501 8.04221 28.6366 7.51262C29.127 6.84076 29.6215 6.17856 30.1181 5.51165L31.7216 3.33782C32.1212 2.79707 32.6142 2.08144 33.1083 1.64446C33.8229 1.02465 34.6769 0.585581 35.5966 0.365163C37.1698 0.013007 38.8193 0.295485 40.1854 1.1513C41.0983 1.72371 41.4466 2.34953 42.0438 3.1845L43.3778 5.01751L47.3075 10.5575L50.8837 15.6796L52.3358 17.7743C52.4627 17.9583 52.6024 18.1597 52.7382 18.3368C54.144 20.1724 54.1644 22.8406 52.9452 24.7714C52.1643 25.9949 50.9322 26.8614 49.5165 27.1816C47.6554 27.6004 45.3164 27.1342 44.1122 25.5995C43.1696 24.3983 42.2771 23.0123 41.3808 21.7675L38.9892 18.4003C38.8503 18.2043 38.1366 17.2489 38.0565 17.0751C37.6804 16.575 37.3239 16.0459 36.9374 15.5322C36.587 16.1157 36.0958 16.6701 35.6845 17.2294C34.5086 18.8176 33.319 20.3961 32.1161 21.9638L30.412 24.2626C30.0703 24.7287 29.5752 25.4564 29.1708 25.8349C28.4922 26.4655 27.6624 26.9107 26.7616 27.1269C22.5387 28.1823 18.775 24.801 19.6171 20.4267C19.7414 19.7809 20.0543 19.1673 20.3944 18.6074C20.1742 18.3202 18.4323 16.0181 18.3544 15.8075C18.3092 15.7658 18.2324 15.6703 18.1561 15.5712L17.9608 15.3124C17.4104 16.0959 16.8597 16.7904 16.2938 17.5546L12.9833 22.0087L11.2811 24.2851C11.0603 24.581 10.7851 25.0039 10.5536 25.2695C10.2952 25.5628 10.0033 25.8254 9.68446 26.0517C9.21511 26.3886 8.63937 26.6846 8.08388 26.8427C3.87494 28.0399 0.223622 24.6686 0.937393 20.4101C1.0628 19.7036 1.32204 19.0275 1.70204 18.4189C2.10281 17.7677 2.79455 16.937 3.25673 16.2822C4.85698 14.0427 6.47552 11.8164 8.1122 9.60344C9.62746 7.55411 11.0936 5.4589 12.62 3.41887C13.0078 2.95716 13.3304 2.37861 13.7147 1.92278ZM18.1679 15.0156H18.1669H18.1679ZM20.1366 12.4042H20.1376H20.1366ZM26.7724 8.2636C26.7466 8.30063 26.7225 8.31472 26.6718 8.33391C26.7226 8.31472 26.7466 8.30049 26.7724 8.2636ZM23.9345 8.37005C24.0067 8.3421 24.0794 8.31538 24.1532 8.29192C24.0794 8.31537 24.0067 8.34211 23.9345 8.37005Z" fill="#7235D5"/>
<mask id="mask0_202_2994" style="mask-type:alpha" maskUnits="userSpaceOnUse" x="0" y="0" width="54" height="28">
<path d="M13.7108 1.92289C15.6835 -0.416141 19.4334 -0.633965 21.7411 1.33988C22.2775 1.79865 22.5115 2.19655 22.8983 2.72855L24.163 4.50492C25.044 5.74165 25.9316 6.93829 26.8114 8.18851L27.1483 8.64261C27.2645 8.80196 27.3767 8.96294 27.4618 9.10453C27.8109 8.54581 28.2462 8.04232 28.6327 7.51273C29.1231 6.84087 29.6176 6.17867 30.1141 5.51175L31.7177 3.33793C32.1174 2.79701 32.6101 2.08054 33.1044 1.64359C33.819 1.02378 34.673 0.585687 35.5927 0.365269C37.1659 0.0131061 38.8153 0.295588 40.1815 1.1514C41.0944 1.72383 41.4426 2.34962 42.0399 3.18461L43.3739 5.01761L47.3036 10.5577L50.8798 15.6797L52.3319 17.7744C52.4588 17.9584 52.5985 18.1599 52.7343 18.3369C54.14 20.1725 54.1605 22.8407 52.9413 24.7715C52.1604 25.995 50.9283 26.8615 49.5126 27.1817C47.6515 27.6005 45.3125 27.1342 44.1083 25.5996C43.1657 24.3984 42.2732 23.0124 41.3768 21.7676L38.9852 18.4004C38.8466 18.2046 38.1329 17.2492 38.0526 17.0752C37.6765 16.5751 37.3199 16.046 36.9335 15.5323C36.583 16.1158 36.0919 16.6702 35.6806 17.2295C34.5047 18.8177 33.3151 20.3962 32.1122 21.9639L30.4081 24.2627C30.0664 24.7288 29.5713 25.4565 29.1669 25.835C28.4883 26.4656 27.6585 26.9108 26.7577 27.127C22.5348 28.1824 18.7711 24.8011 19.6132 20.4268C19.7375 19.7809 20.0504 19.1675 20.3905 18.6075C20.1705 18.3206 18.4288 16.0187 18.3505 15.8077C18.2602 15.7241 18.0436 15.4266 17.9569 15.3125C17.4065 16.096 16.8558 16.7905 16.2899 17.5547L12.9794 22.0088L11.2782 24.2852C11.0573 24.5811 10.7813 25.0039 10.5497 25.2696C10.2913 25.5629 9.99934 25.8256 9.68055 26.0518C9.21123 26.3887 8.63539 26.6847 8.07997 26.8428C3.87112 28.0399 0.219724 24.6687 0.933482 20.4102C1.05888 19.7037 1.31908 19.0276 1.69911 18.419C2.0999 17.7678 2.7907 16.937 3.25282 16.2823C4.85306 14.0428 6.47161 11.8165 8.10829 9.60355C9.62354 7.55423 11.0897 5.45899 12.6161 3.41898C13.0039 2.9573 13.3265 2.37873 13.7108 1.92289Z" fill="#D7D7F0"/>
</mask>
<g mask="url(#mask0_202_2994)">
<path d="M43.3784 8.23298C44.4766 7.93299 45.8672 8.67614 46.4252 9.08521L52.2664 17.5224L44.1484 25.6867L36.9336 15.5312L40.9342 10.0397C41.2913 9.56245 42.2802 8.53296 43.3784 8.23298Z" fill="url(#paint0_linear_202_2994)"/>
<path d="M43.3784 8.23298C44.4766 7.93299 45.8672 8.67614 46.4252 9.08521L52.2664 17.5224L44.1484 25.6867L36.9336 15.5312L40.9342 10.0397C41.2913 9.56245 42.2802 8.53296 43.3784 8.23298Z" fill="url(#paint1_linear_202_2994)"/>
<path d="M24.4135 8.03376C25.5117 7.73377 26.9023 8.47692 27.4603 8.88599L33.3015 17.3232L25.1836 25.4874L17.9688 15.3319L21.9694 9.84047C22.3265 9.36323 23.3153 8.33374 24.4135 8.03376Z" fill="url(#paint2_linear_202_2994)"/>
</g>
<path d="M27.5251 8.95984L20.4062 18.6673C20.9312 20.9337 24.9248 25.7527 25.2035 25.6332C25.4823 25.5138 28.4636 22.6842 29.4759 21.7881L35.1417 15.3319L33.4989 9.65678L27.5251 8.95984Z" fill="#7235D5"/>
<defs>
<linearGradient id="paint0_linear_202_2994" x1="41.7126" y1="9.30843" x2="45.4961" y2="15.8615" gradientUnits="userSpaceOnUse">
<stop stop-color="#7235D5"/>
<stop offset="1" stop-color="white"/>
</linearGradient>
<linearGradient id="paint1_linear_202_2994" x1="41.7126" y1="9.30843" x2="45.4961" y2="15.8615" gradientUnits="userSpaceOnUse">
<stop stop-color="#481994"/>
<stop offset="1" stop-color="#7235D5"/>
</linearGradient>
<linearGradient id="paint2_linear_202_2994" x1="22.7478" y1="9.10922" x2="26.5312" y2="15.6623" gradientUnits="userSpaceOnUse">
<stop stop-color="#481994"/>
<stop offset="1" stop-color="#7235D5"/>
</linearGradient>
</defs>
</svg>
